<svg xmlns="http://www.w3.org/2000/svg" width="21.6" height="26.089" viewBox="0 0 21.6 26.089">
  <g id="组_1796" data-name="组 1796" transform="translate(-93 -210.705)">
    <path id="路径_999" data-name="路径 999" d="M0,2.393,8.079-2.085,18.452,2.393,18.27,9.869l-.725,6.355L8.079,21.27-.651,14.808Z" transform="translate(95 214)" fill="#fff"/>
    <g id="组_1795" data-name="组 1795" transform="translate(-88.3 82.805)">
      <path id="路径_997" data-name="路径 997" d="M192.1,153.989a3.742,3.742,0,0,1-1.738-.43c-3.385-1.784-9.062-5.462-9.062-10.065v-9.931a1.184,1.184,0,0,1,1.146-1.185,8.42,8.42,0,0,0,6.253-3.105,3.8,3.8,0,0,1,2.969-1.374H192a3.736,3.736,0,0,1,2.881,1.4,8.453,8.453,0,0,0,6.575,3.083c.062,0,.124,0,.186,0a1.169,1.169,0,0,1,.885.319,1.19,1.19,0,0,1,.374.863v9.934c0,4.6-5.677,8.281-9.062,10.065A3.732,3.732,0,0,1,192.1,153.989Zm-8.427-19.338v8.844c0,3.581,5.966,7,7.8,7.965a1.361,1.361,0,0,0,1.266,0c1.826-.963,7.793-4.385,7.793-7.965v-8.772a10.751,10.751,0,0,1-7.483-3.916,1.365,1.365,0,0,0-1.045-.531h-.332a1.455,1.455,0,0,0-1.13.5A10.8,10.8,0,0,1,183.673,134.651Z" fill="#1878f3"/>
      <path id="路径_998" data-name="路径 998" d="M389.12,463.431a1.189,1.189,0,0,1-.83-.339l-2.373-2.324a1.185,1.185,0,1,1,1.66-1.693l1.536,1.507,3.581-3.541a1.185,1.185,0,1,1,1.667,1.686l-4.407,4.362A1.181,1.181,0,0,1,389.12,463.431Z" transform="translate(-197.612 -318.097)" fill="#1878f3"/>
    </g>
  </g>
</svg>
