<svg xmlns="http://www.w3.org/2000/svg" width="176.345" height="140.282" viewBox="0 0 176.345 140.282">
  <g id="组_1786" data-name="组 1786" transform="translate(-135.936 -198.04)">
    <path id="路径_991" data-name="路径 991" d="M338.272,503.346V491.267H313.7V481.194l26.043-38.122h9.663v38.08h7.452v10.114H349.41v12.079Zm0-22.192V460.64l-13.8,20.514Zm43.526-38.08q8.719,0,13.635,6.224,5.855,7.369,5.855,24.446,0,17.033-5.895,24.485-4.874,6.14-13.593,6.143a17.178,17.178,0,0,1-14.127-6.736q-5.364-6.736-5.363-24.015,0-16.952,5.9-24.4,4.866-6.143,13.592-6.143Zm0,9.541a5.75,5.75,0,0,0-3.727,1.331,8.939,8.939,0,0,0-2.538,4.771q-1.188,4.464-1.187,15.028t1.065,14.515q1.067,3.952,2.682,5.263a5.888,5.888,0,0,0,7.431-.022,8.939,8.939,0,0,0,2.538-4.771q1.185-4.421,1.187-14.985t-1.065-14.517q-1.067-3.953-2.682-5.283a5.665,5.665,0,0,0-3.7-1.331Zm49.748,50.731V491.267H406.98V481.194l26.043-38.122h9.663v38.08h7.451v10.114h-7.451v12.079Zm0-22.192V460.64l-13.8,20.514Z" transform="translate(-137.855 -190.017)" fill="#ddd"/>
    <path id="路径_992" data-name="路径 992" d="M306.1,198.04H135.936V338.322h48.671V327.78h-37.9v-119.2H295.335V231.89H306.1Z" fill="#ddd"/>
  </g>
</svg>
