<svg xmlns="http://www.w3.org/2000/svg" width="58.78" height="60.256" viewBox="0 0 58.78 60.256">
  <g id="钱包支付" transform="translate(0 0)">
    <path id="路径_943" data-name="路径 943" d="M188.973,114.041a6.009,6.009,0,0,0-5.966-5.927H136.158a5.991,5.991,0,0,0-5.966,5.966v29.713a6.009,6.009,0,0,0,5.966,5.927h46.81a6,6,0,0,0,5.615-3.977l.195-.585.078-.468.078-1.092v-.39Zm-25.179,11.854h.117a6.611,6.611,0,0,0,1.521,0,5.433,5.433,0,0,1,2.535.234,1.6,1.6,0,0,1,.819,1.638,1.652,1.652,0,0,1-1.209,1.443,21.367,21.367,0,0,1-3.159.078c-.624,0-1.326-.039-1.95,0H162.2v3.159h4.835a1.651,1.651,0,0,1,1.755,1.521,1.5,1.5,0,0,1-.429,1.287,1.648,1.648,0,0,1-1.365.585h-4.8V138.1c0,.9,0,1.833-.039,2.73a1.54,1.54,0,0,1-.624,1.17,1.579,1.579,0,0,1-1.053.429h-.156a1.783,1.783,0,0,1-1.56-1.6c-.039-.9-.039-1.833-.039-2.73v-2.262h-2.3c-.9,0-1.677.039-2.5,0a1.728,1.728,0,0,1-1.248-.468,1.691,1.691,0,0,1-.507-1.17,1.635,1.635,0,0,1,1.482-1.716c.936-.078,1.95-.039,2.847-.039h2.3v-3.159h-.273a16.918,16.918,0,0,0-1.989,0,11.512,11.512,0,0,1-3.314-.195,1.58,1.58,0,0,1-1.014-1.56,1.659,1.659,0,0,1,.975-1.56,8.6,8.6,0,0,1,2.457-.117c.468,0,1.014.039,1.482,0h.078l.936-.936-.195-.195c-.741-.78-1.521-1.521-2.184-2.184-.975-.975-2.067-2.067-3.12-3.159a1.453,1.453,0,0,1-.39-1.443,1.82,1.82,0,0,1,1.092-1.326h.039a1.855,1.855,0,0,1,2.028.624l5.186,5.225.195-.195,2.3-2.3.117-.117c.819-.819,1.638-1.677,2.457-2.457.78-.819,1.4-1.014,2.067-.819a1.67,1.67,0,0,1,1.17,1.209,1.463,1.463,0,0,1-.39,1.482c-.819.858-1.677,1.716-2.5,2.535l-.078.078c-.936.9-1.872,1.872-2.808,2.847l-.156.156.819,1.014ZM151.472,94.427a1.817,1.817,0,0,1,2.34-1.17l21.642,7.136a1.985,1.985,0,0,1,1.092.936,1.851,1.851,0,0,1,.078,1.443l-.585,1.755a1.531,1.531,0,0,0,1.17,1.716,2.541,2.541,0,0,0,2.223-.195l.7-2.067A5.515,5.515,0,0,0,176.623,97l-21.6-7.253a5.536,5.536,0,0,0-6.98,3.509c-.039.117-.078,1.053,1.521,1.521C151.121,95.246,151.472,94.427,151.472,94.427Z" transform="translate(-130.192 -89.464)" fill="#1878f3"/>
    <path id="路径_944" data-name="路径 944" d="M259.8,171.328a4.444,4.444,0,0,1,1.989-2.73,4.382,4.382,0,0,1,2.3-.663,4.84,4.84,0,0,1,1.053.117l3.7.9,19.263,4.718a4.553,4.553,0,0,1,2.73,1.989,4.922,4.922,0,0,1,.624,1.794s.039.351.039.663c0,.156-.234.429-.39.429H258.36c-.273,0-.312-.429-.312-.429Z" transform="translate(-248.311 -161.96)" fill="#1878f3"/>
  </g>
</svg>
