<svg xmlns="http://www.w3.org/2000/svg" width="64.99" height="56.634" viewBox="0 0 64.99 56.634">
  <path id="微信支付" d="M108.982,169.851a2.075,2.075,0,0,1-.976.223,2.137,2.137,0,0,1-1.886-1.114l-.153-.294-5.949-12.788a.957.957,0,0,1-.073-.445A1.023,1.023,0,0,1,101,154.391a1.207,1.207,0,0,1,.677.223l7,4.907a3.677,3.677,0,0,0,1.806.517,3.008,3.008,0,0,0,1.129-.223L144.462,145.4c-5.876-6.839-15.589-11.3-26.59-11.3-17.926,0-32.539,11.969-32.539,26.755,0,8.025,4.369,15.309,11.22,20.216a2.187,2.187,0,0,1,.9,1.71,2.025,2.025,0,0,1-.153.668c-.524,2-1.434,5.28-1.434,5.424a2.687,2.687,0,0,0-.153.819,1.023,1.023,0,0,0,1.056,1.042.86.86,0,0,0,.6-.223l7.077-4.088a3.629,3.629,0,0,1,1.733-.517,4.183,4.183,0,0,1,.976.151,38.3,38.3,0,0,0,10.623,1.487c17.926,0,32.539-11.969,32.539-26.755a23.27,23.27,0,0,0-3.691-12.414L109.207,169.7l-.226.151Z" transform="translate(-85.333 -134.095)" fill="#09bb07"/>
</svg>
